<svg width="483" height="483" viewBox="0 0 483 483" fill="none" xmlns="http://www.w3.org/2000/svg">
<path fill-rule="evenodd" clip-rule="evenodd" d="M318.193 241.389C318.193 284.682 283.097 319.778 239.804 319.778C196.511 319.778 161.415 284.682 161.415 241.389C161.415 198.096 196.511 163 239.804 163C283.097 163 318.193 198.096 318.193 241.389ZM92.0974 166.163C92.4295 165.588 93.2599 165.588 93.592 166.163L178.572 313.354C178.905 313.929 178.489 314.648 177.825 314.648H7.86423C7.19994 314.648 6.78475 313.929 7.1169 313.354L92.0974 166.163ZM330.178 167.665C329.225 167.665 328.452 168.438 328.452 169.391V313.386C328.452 314.339 329.225 315.112 330.178 315.112H474.172C475.126 315.112 475.898 314.339 475.898 313.386V169.391C475.898 168.438 475.126 167.665 474.172 167.665H330.178Z" fill="url(#paint0_linear)"/>
<defs>
<linearGradient id="paint0_linear" x1="-182.187" y1="381.961" x2="650.763" y2="157.636" gradientUnits="userSpaceOnUse">
<stop stop-color="#0054FD"/>
<stop offset="0.25" stop-color="#FF19F7"/>
<stop offset="0.75" stop-color="#FFAA07"/>
<stop offset="1" stop-color="#E6B974"/>
<stop offset="1" stop-color="#E6B974"/>
</linearGradient>
</defs>
</svg>
