<svg width="44" height="44" viewBox="0 0 44 44" fill="none" xmlns="http://www.w3.org/2000/svg">
<path d="M22 15V24L13.314 31.445" stroke="white" stroke-width="2" stroke-miterlimit="10"/>
<path d="M22 24L30.686 31.445" stroke="white" stroke-width="2" stroke-miterlimit="10"/>
<path d="M22 15C25.866 15 29 11.866 29 8C29 4.13401 25.866 1 22 1C18.134 1 15 4.13401 15 8C15 11.866 18.134 15 22 15Z" stroke="white" stroke-width="2" stroke-miterlimit="10" stroke-linecap="square"/>
<path d="M8 43C11.866 43 15 39.866 15 36C15 32.134 11.866 29 8 29C4.13401 29 1 32.134 1 36C1 39.866 4.13401 43 8 43Z" stroke="white" stroke-width="2" stroke-miterlimit="10" stroke-linecap="square"/>
<path d="M36 43C39.866 43 43 39.866 43 36C43 32.134 39.866 29 36 29C32.134 29 29 32.134 29 36C29 39.866 32.134 43 36 43Z" stroke="white" stroke-width="2" stroke-miterlimit="10" stroke-linecap="square"/>
</svg>
